# xmcd
#
# Track frame offsets: 
#        150
#        15473
#        31148
#        48697
#        65454
#        80475
#        95277
#        109751
#        125506
#        140736
#        157881
#        173184
#        188541
#
# Disc length: 2740 seconds
#
# Revision: 1
# Processed by: cddbd v1.5.2PL0 Copyright (c) Steve Scherf et al.
# Submitted via: ExactAudioCopy v1.0b3
#
DISCID=a30ab20d
DTITLE=Schwesternherz - Zarte Bande
DYEAR=2007
DGENRE=Pop
TTITLE0=Der Richtige
TTITLE1=Jede Menge Mann
TTITLE2=Nur weil zwei Menschen sich verliebten
TTITLE3=Küss mich
TTITLE4=Papa wollte Jungs
TTITLE5=Dieser Tag ist für immer
TTITLE6=Mädels müssen tun
TTITLE7=Irgendwann
TTITLE8=Bye bye Kinderzimmer
TTITLE9=Schwesterherzen
TTITLE10=Hey Mond
TTITLE11=Auch wenn wir jetzt gehn
TTITLE12=Wo bist Du (Bonustrack)
EXTD=
EXTT0=
EXTT1=
EXTT2=
EXTT3=
EXTT4=
EXTT5=
EXTT6=
EXTT7=
EXTT8=
EXTT9=
EXTT10=
EXTT11=
EXTT12=
PLAYORDER=
